<?xml version="1.0" encoding="iso-8859-1"?>
<!-- Uploaded to: SVG Repo, www.svgrepo.com, Generator: SVG Repo Mixer Tools -->
<svg fill="#000000" height="800px" width="800px" version="1.1" id="Layer_1" xmlns="http://www.w3.org/2000/svg" xmlns:xlink="http://www.w3.org/1999/xlink" 
	 viewBox="0 0 512 512" xml:space="preserve">
<g>
	<g>
		<g>
			<path d="M503.467,29.867h-25.6V12.8c0-4.71-3.823-8.533-8.533-8.533h-42.667v93.867c0,3.627-2.287,6.852-5.709,8.055
				c-0.922,0.316-1.877,0.478-2.825,0.478c-2.543,0-5.009-1.135-6.665-3.2L384,69.129l-27.469,34.338
				c-2.27,2.833-6.093,3.908-9.489,2.722c-3.422-1.203-5.709-4.429-5.709-8.055V4.267h-25.6c-25.233,0-47.266,13.798-59.085,34.219
				C241.05,15.292,205.38,4.267,179.2,4.267H42.667c-4.71,0-8.533,3.823-8.533,8.533v17.067h-25.6C3.823,29.867,0,33.69,0,38.4
				v418.133c0,4.71,3.823,8.533,8.533,8.533h169.822c25.779,5.188,48.367,11.204,64.034,30.771l6.946,8.695
				c0.094,0.111,0.239,0.154,0.333,0.256c0.563,0.64,1.237,1.126,1.971,1.57c0.29,0.179,0.529,0.427,0.845,0.572
				c1.075,0.495,2.253,0.802,3.516,0.802s2.441-0.307,3.516-0.802c0.316-0.145,0.555-0.393,0.853-0.572
				c0.725-0.444,1.399-0.922,1.954-1.562c0.102-0.102,0.247-0.154,0.341-0.265l6.955-8.695
				c15.659-19.567,38.246-25.583,64.026-30.771h169.822c4.71,0,8.533-3.823,8.533-8.533V38.4
				C512,33.69,508.177,29.867,503.467,29.867z M162.133,81.067h51.2c4.71,0,8.533,3.823,8.533,8.533s-3.823,8.533-8.533,8.533h-51.2
				c-4.71,0-8.533-3.823-8.533-8.533S157.423,81.067,162.133,81.067z M213.333,140.8h-17.067c-4.71,0-8.533-3.823-8.533-8.533
				c0-4.71,3.823-8.533,8.533-8.533h17.067c4.71,0,8.533,3.823,8.533,8.533C221.867,136.977,218.044,140.8,213.333,140.8z
				 M221.867,174.933c0,4.71-3.823,8.533-8.533,8.533h-51.2c-4.71,0-8.533-3.823-8.533-8.533s3.823-8.533,8.533-8.533h51.2
				C218.044,166.4,221.867,170.223,221.867,174.933z M93.867,81.067H128c4.71,0,8.533,3.823,8.533,8.533s-3.823,8.533-8.533,8.533
				H93.867c-4.71,0-8.533-3.823-8.533-8.533S89.156,81.067,93.867,81.067z M93.867,123.733h68.267c4.71,0,8.533,3.823,8.533,8.533
				c0,4.71-3.823,8.533-8.533,8.533H93.867c-4.71,0-8.533-3.823-8.533-8.533C85.333,127.556,89.156,123.733,93.867,123.733z
				 M93.867,166.4H128c4.71,0,8.533,3.823,8.533,8.533s-3.823,8.533-8.533,8.533H93.867c-4.71,0-8.533-3.823-8.533-8.533
				S89.156,166.4,93.867,166.4z M93.867,209.067h119.467c4.71,0,8.533,3.823,8.533,8.533s-3.823,8.533-8.533,8.533H93.867
				c-4.71,0-8.533-3.823-8.533-8.533S89.156,209.067,93.867,209.067z M196.267,302.933c-4.71,0-8.533-3.823-8.533-8.533
				s3.823-8.533,8.533-8.533h17.067c4.71,0,8.533,3.823,8.533,8.533s-3.823,8.533-8.533,8.533H196.267z M213.333,337.067
				c0,4.71-3.823,8.533-8.533,8.533c-4.71,0-8.533-3.823-8.533-8.533s3.823-8.533,8.533-8.533
				C209.51,328.533,213.333,332.356,213.333,337.067z M213.333,260.267h-51.2c-4.71,0-8.533-3.823-8.533-8.533
				c0-4.71,3.823-8.533,8.533-8.533h51.2c4.71,0,8.533,3.823,8.533,8.533C221.867,256.444,218.044,260.267,213.333,260.267z
				 M93.867,243.2H128c4.71,0,8.533,3.823,8.533,8.533c0,4.71-3.823,8.533-8.533,8.533H93.867c-4.71,0-8.533-3.823-8.533-8.533
				C85.333,247.023,89.156,243.2,93.867,243.2z M93.867,285.867h68.267c4.71,0,8.533,3.823,8.533,8.533s-3.823,8.533-8.533,8.533
				H93.867c-4.71,0-8.533-3.823-8.533-8.533S89.156,285.867,93.867,285.867z M93.867,328.533h68.267c4.71,0,8.533,3.823,8.533,8.533
				s-3.823,8.533-8.533,8.533H93.867c-4.71,0-8.533-3.823-8.533-8.533S89.156,328.533,93.867,328.533z M247.467,476.339
				c-18.475-17.237-42.035-23.262-66.594-28.169c-0.555-0.119-1.109-0.171-1.673-0.171H17.067V46.933h17.067v366.933
				c0,4.71,3.823,8.533,8.533,8.533h135.689c3.226,0.648,6.391,1.314,9.506,2.005c20.924,4.702,39.202,11.221,52.753,26.846
				c0.58,0.666,1.212,1.22,1.766,1.92l5.086,6.357V476.339z M366.933,123.733h51.2c4.71,0,8.533,3.823,8.533,8.533
				c0,4.71-3.823,8.533-8.533,8.533h-51.2c-4.71,0-8.533-3.823-8.533-8.533C358.4,127.556,362.223,123.733,366.933,123.733z
				 M349.867,166.4h68.267c4.71,0,8.533,3.823,8.533,8.533s-3.823,8.533-8.533,8.533h-68.267c-4.71,0-8.533-3.823-8.533-8.533
				S345.156,166.4,349.867,166.4z M349.867,311.467c-4.71,0-8.533-3.823-8.533-8.533c0-4.71,3.823-8.533,8.533-8.533h68.267
				c4.71,0,8.533,3.823,8.533,8.533c0,4.71-3.823,8.533-8.533,8.533H349.867z M418.133,345.6c0,4.71-3.823,8.533-8.533,8.533
				s-8.533-3.823-8.533-8.533s3.823-8.533,8.533-8.533S418.133,340.89,418.133,345.6z M418.133,268.8H384
				c-4.71,0-8.533-3.823-8.533-8.533c0-4.71,3.823-8.533,8.533-8.533h34.133c4.71,0,8.533,3.823,8.533,8.533
				C426.667,264.977,422.844,268.8,418.133,268.8z M418.133,226.133h-17.067c-4.71,0-8.533-3.823-8.533-8.533
				s3.823-8.533,8.533-8.533h17.067c4.71,0,8.533,3.823,8.533,8.533S422.844,226.133,418.133,226.133z M298.667,81.067h17.067
				c4.71,0,8.533,3.823,8.533,8.533s-3.823,8.533-8.533,8.533h-17.067c-4.71,0-8.533-3.823-8.533-8.533
				S293.956,81.067,298.667,81.067z M298.667,123.733H332.8c4.71,0,8.533,3.823,8.533,8.533c0,4.71-3.823,8.533-8.533,8.533h-34.133
				c-4.71,0-8.533-3.823-8.533-8.533C290.133,127.556,293.956,123.733,298.667,123.733z M298.667,166.4h17.067
				c4.71,0,8.533,3.823,8.533,8.533s-3.823,8.533-8.533,8.533h-17.067c-4.71,0-8.533-3.823-8.533-8.533S293.956,166.4,298.667,166.4
				z M298.667,209.067h68.267c4.71,0,8.533,3.823,8.533,8.533s-3.823,8.533-8.533,8.533h-68.267c-4.71,0-8.533-3.823-8.533-8.533
				S293.956,209.067,298.667,209.067z M298.667,251.733h51.2c4.71,0,8.533,3.823,8.533,8.533c0,4.71-3.823,8.533-8.533,8.533h-51.2
				c-4.71,0-8.533-3.823-8.533-8.533C290.133,255.556,293.956,251.733,298.667,251.733z M298.667,294.4h17.067
				c4.71,0,8.533,3.823,8.533,8.533c0,4.71-3.823,8.533-8.533,8.533h-17.067c-4.71,0-8.533-3.823-8.533-8.533
				C290.133,298.223,293.956,294.4,298.667,294.4z M298.667,337.067h68.267c4.71,0,8.533,3.823,8.533,8.533
				s-3.823,8.533-8.533,8.533h-68.267c-4.71,0-8.533-3.823-8.533-8.533S293.956,337.067,298.667,337.067z M494.933,448H332.8
				c-0.563,0-1.118,0.051-1.672,0.171c-24.559,4.907-48.128,10.931-66.594,28.169v-16.811l5.086-6.357
				c13.696-17.118,32.708-23.868,54.519-28.766c3.115-0.691,6.281-1.357,9.506-2.005h135.689c4.71,0,8.533-3.823,8.533-8.533V46.933
				h17.067V448z"/>
			<path d="M384,46.933c2.594,0,5.043,1.178,6.665,3.2L409.6,73.805V4.267h-51.2v69.538l18.935-23.671
				C378.957,48.111,381.406,46.933,384,46.933z"/>
		</g>
	</g>
</g>
</svg>